<?xml version="1.0" standalone="no"?>
<!DOCTYPE svg PUBLIC "-//W3C//DTD SVG 20010904//EN"
 "http://www.w3.org/TR/2001/REC-SVG-20010904/DTD/svg10.dtd">
<svg version="1.0" xmlns="http://www.w3.org/2000/svg"
 width="1000.000000pt" height="1000.000000pt" viewBox="0 0 1000.000000 1000.000000"
 preserveAspectRatio="xMidYMid meet">
<metadata>
Created by potrace 1.14, written by Peter Selinger 2001-2017
</metadata>
<g transform="translate(0.000000,1000.000000) scale(0.100000,-0.100000)"
fill="#000000" stroke="none">
<path d="M358 9305 c-52 -29 -71 -104 -41 -157 10 -15 81 -70 163 -124 80 -53
147 -101 148 -105 2 -5 10 -9 18 -9 8 0 14 -4 14 -10 0 -5 5 -10 11 -10 6 0
28 -13 49 -30 21 -16 42 -30 47 -30 5 0 18 -8 29 -17 11 -10 136 -96 279 -192
143 -96 262 -178 263 -183 2 -4 7 -8 11 -8 8 0 94 -57 245 -160 32 -22 62 -40
67 -40 5 0 9 -4 9 -10 0 -5 6 -10 14 -10 8 0 16 -4 18 -8 2 -4 77 -58 168
-119 398 -267 526 -353 535 -360 6 -5 57 -40 115 -78 58 -38 107 -72 110 -75
3 -3 86 -59 185 -125 99 -66 182 -122 185 -125 3 -4 23 -17 45 -30 22 -13 49
-32 59 -42 11 -10 25 -18 32 -18 7 0 14 -4 16 -8 2 -5 80 -59 173 -122 94 -62
172 -117 173 -122 2 -4 8 -8 13 -8 7 0 95 -56 109 -70 3 -3 13 -9 22 -15 9 -5
84 -55 165 -110 81 -55 152 -102 158 -104 5 -2 12 -7 15 -11 3 -4 75 -53 160
-110 85 -57 157 -107 158 -112 2 -4 10 -8 18 -8 8 0 14 -4 14 -10 0 -5 7 -10
15 -10 8 0 15 -4 15 -10 0 -5 7 -10 15 -10 8 0 23 -9 32 -20 10 -11 23 -20 30
-20 7 0 13 -4 13 -10 0 -5 5 -10 11 -10 6 0 28 -13 49 -30 21 -16 41 -30 45
-30 3 0 13 -6 20 -12 30 -27 44 -38 50 -38 3 0 33 -19 68 -43 61 -43 483 -328
562 -380 22 -15 45 -31 51 -36 6 -5 30 -21 54 -36 24 -15 48 -32 54 -37 10 -8
24 -18 95 -63 83 -53 237 -160 239 -167 2 -4 8 -8 12 -8 5 0 30 -15 56 -32 25
-18 57 -40 70 -48 13 -8 83 -55 156 -105 72 -49 137 -92 142 -94 6 -2 13 -7
16 -11 3 -4 61 -44 130 -90 69 -46 127 -87 128 -92 2 -4 8 -8 14 -8 5 0 20 -8
33 -17 27 -22 26 -20 195 -133 74 -49 140 -93 145 -98 6 -4 71 -48 145 -97 74
-50 143 -98 154 -107 11 -10 26 -18 33 -18 7 0 13 -4 13 -8 0 -4 23 -21 50
-37 28 -16 50 -33 50 -38 0 -4 4 -5 10 -2 6 3 10 2 10 -4 0 -6 16 -18 35 -27
19 -9 35 -20 35 -24 0 -5 9 -12 20 -15 11 -3 26 -12 33 -18 21 -20 101 -73
120 -80 9 -4 17 -11 17 -17 0 -5 5 -10 11 -10 6 0 25 -11 43 -25 18 -14 38
-25 44 -25 6 0 12 -4 14 -8 2 -5 53 -42 113 -82 61 -41 116 -79 123 -86 6 -7
21 -16 32 -19 11 -3 20 -11 20 -16 0 -6 4 -8 9 -5 5 4 11 2 13 -2 1 -5 73 -55
158 -112 85 -57 158 -108 162 -114 5 -7 8 -7 8 -1 0 6 3 6 8 -1 4 -6 117 -84
252 -175 135 -90 247 -166 250 -169 5 -5 132 -90 171 -115 9 -5 62 -41 118
-80 56 -38 114 -77 129 -85 15 -8 29 -18 32 -21 8 -9 229 -159 235 -159 3 0
16 -10 29 -21 14 -12 34 -27 45 -33 12 -6 74 -47 138 -91 118 -81 168 -99 201
-73 6 6 12 7 12 4 0 -15 39 31 49 57 8 20 11 995 11 3249 0 3217 0 3221 -20
3253 -11 18 -35 38 -52 44 -22 8 -707 11 -2361 11 -2322 0 -2330 0 -2362 -20
-18 -11 -38 -35 -44 -52 -14 -40 -15 -1118 -2 -1118 5 0 12 -9 16 -20 3 -10
23 -29 43 -41 20 -13 39 -25 42 -28 12 -14 70 -51 79 -51 5 0 11 -3 13 -8 4
-11 126 -92 137 -92 5 0 11 -4 13 -8 2 -5 52 -42 112 -82 94 -63 114 -73 150
-72 32 2 48 9 75 36 l34 34 0 354 c0 214 4 361 10 372 15 31 40 54 67 63 14 5
735 9 1635 9 1542 -1 1612 -2 1639 -19 51 -34 52 -36 51 -601 0 -289 4 -526 8
-526 5 0 5 -6 0 -12 -10 -17 -10 -228 0 -228 5 0 5 -6 0 -12 -11 -18 -10 -828
1 -828 5 0 4 -6 -1 -12 -11 -16 -11 -488 0 -505 5 -7 5 -13 0 -13 -12 0 -10
-224 2 -232 7 -5 7 -8 0 -8 -12 0 -13 -368 -2 -387 5 -7 5 -13 0 -13 -4 0 -8
-52 -8 -115 0 -70 4 -115 10 -115 7 0 7 -3 0 -8 -12 -9 -14 -512 -2 -512 5 0
5 -6 0 -12 -4 -7 -8 -78 -8 -158 -1 -155 -6 -175 -52 -208 -52 -36 -91 -23
-252 85 -80 54 -148 100 -151 103 -6 7 -324 221 -348 235 -9 6 -19 12 -22 15
-3 3 -45 32 -95 64 -49 33 -92 63 -95 66 -3 3 -23 17 -45 30 -22 13 -42 26
-45 29 -3 4 -13 11 -22 16 -45 27 -193 130 -196 137 -2 5 -8 8 -12 8 -5 0 -37
19 -72 43 -35 24 -162 110 -283 192 -121 81 -241 163 -266 181 -26 19 -52 34
-58 34 -6 0 -11 5 -11 10 0 6 -6 10 -14 10 -8 0 -16 3 -18 8 -1 4 -37 30 -78
58 -257 173 -326 219 -330 224 -7 7 -41 28 -60 37 -8 4 -24 15 -36 26 -13 11
-32 25 -43 31 -12 6 -55 35 -96 64 -42 28 -80 52 -85 52 -6 0 -10 3 -10 8 0 4
-16 16 -35 26 -19 11 -35 23 -35 28 0 4 -6 8 -13 8 -7 0 -22 8 -33 18 -11 9
-120 85 -244 167 -124 83 -229 153 -235 158 -50 38 -187 127 -195 127 -5 0
-10 4 -10 8 0 4 -22 21 -50 37 -27 17 -50 33 -50 38 0 4 -6 7 -14 7 -8 0 -16
3 -18 8 -4 10 -157 112 -168 112 -4 0 -10 4 -12 8 -1 5 -30 26 -63 47 -33 22
-66 45 -73 52 -7 7 -17 13 -21 13 -4 0 -21 11 -37 25 -16 14 -35 25 -41 25 -7
0 -13 4 -13 8 0 5 -10 14 -22 21 -27 13 -20 8 -259 170 -101 68 -185 128 -187
133 -2 4 -8 8 -12 8 -5 0 -44 24 -87 53 -131 89 -439 297 -618 418 -93 63
-176 120 -183 126 -7 7 -17 13 -22 13 -5 0 -15 6 -22 13 -7 6 -42 31 -78 55
-36 23 -73 48 -84 55 -10 6 -24 18 -32 25 -7 6 -15 12 -18 12 -5 0 -183 122
-203 139 -7 6 -15 11 -18 11 -3 0 -92 59 -198 130 -105 72 -200 136 -211 143
-10 6 -29 20 -41 30 -13 9 -28 17 -33 17 -6 0 -12 4 -14 8 -2 7 -290 204 -345
237 -9 6 -28 20 -42 33 -14 12 -29 22 -33 22 -4 0 -28 15 -53 33 -26 17 -54
37 -64 42 -9 6 -53 36 -98 68 -44 31 -86 57 -91 57 -6 0 -12 4 -14 8 -1 5
-140 100 -308 213 -168 112 -307 207 -310 211 -3 3 -39 18 -80 32 l-75 25
-440 0 c-371 0 -444 -2 -467 -14z"/>
<path d="M48 7278 c-14 -13 -31 -33 -37 -45 -15 -31 -16 -6437 0 -6481 6 -17
23 -39 37 -49 26 -17 124 -18 2366 -20 1663 -2 2345 1 2360 9 28 14 66 57 67
77 6 89 2 1056 -4 1085 -8 39 -58 96 -84 96 -7 0 -13 3 -13 8 0 4 -16 16 -35
26 -19 11 -35 23 -35 28 0 4 -5 8 -11 8 -6 0 -25 11 -43 25 -18 14 -38 25 -44
25 -6 0 -12 4 -14 8 -1 5 -43 36 -93 68 -49 32 -95 64 -102 69 -7 6 -19 16
-28 23 -23 20 -77 38 -105 36 -69 -5 -104 -44 -107 -119 0 -27 -2 -50 -3 -50
-5 0 -6 -46 0 -50 8 -5 6 -48 -3 -62 -4 -7 -4 -14 1 -17 5 -3 7 -24 5 -48 -5
-57 -5 -57 0 -101 3 -20 2 -39 -2 -42 -6 -3 -7 -44 -1 -52 5 -8 3 -50 -3 -60
-4 -6 -4 -14 1 -17 5 -3 7 -24 5 -48 -2 -24 -4 -50 -3 -58 2 -68 -10 -97 -57
-127 -25 -16 -124 -18 -1632 -18 -883 -1 -1617 3 -1631 8 -30 10 -57 38 -68
69 -10 28 -8 4364 2 4393 10 29 65 63 101 63 30 0 83 -24 97 -43 5 -7 8 -7 8
0 0 6 3 6 8 -1 4 -6 133 -95 287 -199 154 -103 340 -229 413 -279 73 -50 140
-96 150 -101 9 -6 53 -35 97 -65 44 -30 87 -59 96 -65 9 -5 84 -55 165 -111
82 -56 172 -116 199 -135 28 -18 52 -37 53 -41 2 -4 10 -8 18 -8 8 0 14 -4 14
-10 0 -5 5 -10 10 -10 9 0 65 -35 80 -50 3 -3 12 -9 21 -15 10 -5 37 -24 60
-40 24 -17 52 -34 62 -38 9 -3 17 -10 17 -16 0 -5 8 -11 18 -15 18 -6 53 -27
62 -37 3 -3 129 -88 280 -190 151 -101 277 -186 280 -189 14 -14 70 -50 79
-50 5 0 11 -3 13 -7 5 -12 155 -113 166 -113 6 0 12 -4 14 -8 3 -7 518 -359
566 -387 9 -5 19 -13 22 -16 3 -3 52 -36 110 -75 58 -38 107 -71 110 -74 3 -3
79 -55 170 -115 91 -60 167 -112 170 -115 3 -3 39 -27 80 -55 41 -27 77 -52
80 -56 3 -3 10 -8 16 -10 5 -2 90 -58 187 -124 98 -66 185 -124 195 -130 9 -5
19 -13 22 -16 5 -5 288 -197 317 -214 9 -5 25 -17 35 -26 10 -9 31 -22 46 -30
15 -8 29 -17 32 -20 3 -3 68 -48 145 -99 77 -52 142 -96 145 -99 7 -8 41 -29
60 -38 8 -4 17 -9 20 -12 6 -7 102 -74 165 -115 22 -14 45 -29 50 -33 6 -5 98
-67 205 -139 341 -230 435 -293 445 -301 6 -5 28 -20 50 -33 22 -13 42 -27 45
-30 3 -3 102 -71 220 -150 118 -79 217 -147 218 -152 2 -4 8 -8 13 -8 4 0 43
-24 84 -53 42 -28 87 -59 100 -67 14 -8 82 -54 152 -102 382 -259 455 -308
459 -308 3 0 11 -6 18 -12 8 -7 22 -19 32 -25 11 -7 45 -31 77 -53 32 -22 62
-40 67 -40 6 0 10 -4 10 -9 0 -9 112 -62 150 -70 14 -2 229 -5 477 -5 l453 -1
30 31 c40 40 47 96 17 139 -12 16 -25 32 -30 34 -5 2 -17 11 -26 20 -9 9 -27
22 -41 28 -14 7 -83 53 -155 103 -71 50 -137 94 -145 97 -8 4 -19 11 -25 15
-5 5 -21 17 -34 28 -13 11 -28 20 -32 20 -4 0 -14 6 -21 13 -25 23 -106 77
-116 77 -6 0 -12 3 -14 8 -3 7 -31 26 -368 252 -102 69 -187 127 -190 130 -3
3 -23 17 -45 30 -22 13 -42 26 -45 30 -4 4 -219 150 -550 371 -52 35 -96 67
-98 72 -2 4 -8 7 -13 7 -9 0 -65 36 -79 50 -15 15 -161 110 -169 110 -5 0 -11
4 -13 8 -1 5 -120 87 -263 183 -143 96 -266 180 -273 187 -7 6 -17 12 -22 12
-5 0 -15 6 -22 13 -11 11 -275 190 -503 341 -33 22 -62 43 -65 46 -3 3 -13 10
-22 15 -9 6 -63 42 -119 80 -57 39 -108 72 -113 74 -6 2 -19 12 -30 23 -11 10
-26 18 -33 18 -7 0 -13 5 -13 10 0 6 -12 16 -27 23 -16 6 -30 14 -33 18 -3 3
-54 39 -115 79 -60 40 -111 77 -113 82 -2 4 -7 8 -12 8 -7 0 -157 97 -170 110
-3 3 -122 83 -265 179 -143 96 -261 178 -263 183 -2 4 -8 8 -14 8 -6 0 -27 12
-47 27 -20 15 -38 28 -41 27 -3 0 -14 8 -24 18 -11 10 -25 18 -32 18 -7 0 -14
4 -16 8 -4 11 -105 82 -116 82 -5 0 -17 9 -27 20 -10 11 -22 20 -27 20 -5 0
-15 6 -23 13 -11 10 -336 232 -384 262 -9 6 -36 24 -60 40 -24 17 -51 35 -60
40 -60 37 -177 120 -183 129 -5 7 -8 7 -8 1 0 -7 -3 -7 -8 0 -11 15 -129 95
-140 95 -6 0 -12 4 -14 8 -1 5 -86 64 -188 133 -102 68 -187 127 -188 132 -2
4 -9 7 -16 7 -7 0 -21 9 -31 20 -10 11 -23 20 -28 20 -6 0 -19 7 -29 17 -10 9
-27 21 -37 27 -27 16 -144 94 -157 104 -5 5 -30 22 -55 38 -24 16 -45 32 -47
37 -2 4 -10 7 -18 7 -8 0 -14 3 -14 8 0 4 -8 12 -19 17 -38 20 -196 128 -199
136 -2 5 -10 9 -18 9 -8 0 -14 5 -14 10 0 6 -5 10 -10 10 -12 0 -73 41 -78 53
-2 4 -8 7 -13 7 -6 0 -15 5 -22 10 -25 22 -159 110 -166 110 -4 0 -16 9 -26
20 -10 11 -24 20 -31 20 -7 0 -14 4 -16 8 -1 5 -73 55 -158 112 -85 57 -156
107 -158 112 -2 4 -9 8 -15 8 -7 0 -23 9 -37 20 -14 11 -61 44 -105 73 -44 28
-81 55 -83 60 -2 4 -8 7 -14 7 -5 0 -16 6 -23 13 -30 26 -44 37 -50 37 -3 0
-34 20 -69 45 -36 25 -69 45 -75 45 -5 0 -11 4 -13 8 -1 5 -66 51 -143 103
-77 51 -141 97 -143 101 -2 5 -8 8 -13 8 -5 0 -61 36 -125 80 -63 44 -119 80
-124 80 -4 0 -10 4 -12 8 -1 4 -57 44 -123 87 -66 44 -122 82 -125 85 -5 5
-283 194 -324 220 -14 8 -73 48 -133 89 -86 59 -117 75 -153 78 -36 3 -50 0
-72 -19z"/>
</g>
</svg>
