<svg id="Layer_1" data-name="Layer 1"
  xmlns="http://www.w3.org/2000/svg" viewBox="0 0 500 431.93">
  <path d="M293.68,0H263.24a5.74,5.74,0,0,0-5.74,5.74V57.23A5.72,5.72,0,0,0,260,62l24.7,16.69a5.73,5.73,0,0,0,8.95-4.75v-32a5.73,5.73,0,0,1,5.73-5.74H458.09a5.74,5.74,0,0,1,5.74,5.74V257.62a5.74,5.74,0,0,1-8.95,4.76L268.09,136.14,231.91,111.7,120.15,36.17l-48-32.42A21.94,21.94,0,0,0,59.92,0H20.76a5.74,5.74,0,0,0-3.22,10.49l38,25.68L231.91,155.36l36.18,24.44L463.83,312.08l27.22,18.39a5.73,5.73,0,0,0,8.95-4.75V5.74A5.74,5.74,0,0,0,494.26,0Z"/>
  <path d="M268.09,277l-36.18-24.44L36.17,120.29,9,101.89A5.74,5.74,0,0,0,0,106.65V426.2a5.74,5.74,0,0,0,5.74,5.73h230.7a5.73,5.73,0,0,0,5.73-5.73V374.54a5.74,5.74,0,0,0-2.52-4.76L215,353.09a5.74,5.74,0,0,0-8.95,4.76V390a5.73,5.73,0,0,1-5.73,5.73H41.91A5.74,5.74,0,0,1,36.17,390V174.74A5.74,5.74,0,0,1,45.12,170L231.91,296.22l36.18,24.45,111.12,75.09,48,32.42a21.86,21.86,0,0,0,12.26,3.75H478.6a5.74,5.74,0,0,0,3.21-10.49l-38-25.68Z"/>
</svg>