<svg width="23" height="14" viewBox="0 0 23 14" fill="none"
  xmlns="http://www.w3.org/2000/svg">
  <path d="M21.8874 12.5547C21.2647 13.1773 20.2552 13.1773 19.6326 12.5547L10.0498 2.97184C9.42715 2.3492 9.42715 1.3397 10.0498 0.71706C10.6724 0.0944201 11.6819 0.0944196 12.3046 0.717059L21.8874 10.2999C22.51 10.9225 22.51 11.932 21.8874 12.5547Z" fill="white"/>
  <path d="M0.46698 12.5546C-0.15566 11.932 -0.15566 10.9225 0.46698 10.2999L10.0498 0.71706C10.6724 0.0944201 11.6819 0.0944196 12.3046 0.717059C12.9272 1.3397 12.9272 2.34918 12.3046 2.97182L2.72176 12.5546C2.09912 13.1773 1.08962 13.1773 0.46698 12.5546Z" fill="white"/>
</svg>
