<svg width="25" height="19" viewBox="0 0 25 19" fill="none" xmlns="http://www.w3.org/2000/svg">
<path d="M21.1774 1.59125C19.5591 0.847875 17.8287 0.307624 16.0197 0C15.7975 0.394363 15.538 0.924789 15.359 1.34674C13.4359 1.0628 11.5306 1.0628 9.64287 1.34674C9.46395 0.924789 9.19849 0.394363 8.97433 0C7.16334 0.307624 5.431 0.84986 3.8127 1.59518C0.548586 6.43786 -0.336262 11.1603 0.106163 15.8156C2.2711 17.4029 4.36918 18.3671 6.43185 18.998C6.94113 18.3099 7.39535 17.5784 7.78664 16.8074C7.04141 16.5294 6.32763 16.1863 5.6532 15.788C5.83212 15.6579 6.00714 15.5218 6.17623 15.3818C10.2898 17.2708 14.7593 17.2708 18.8237 15.3818C18.9948 15.5218 19.1697 15.6579 19.3467 15.788C18.6703 16.1883 17.9546 16.5313 17.2093 16.8094C17.6006 17.5784 18.0529 18.3119 18.5641 19C20.6288 18.369 22.7288 17.4049 24.8937 15.8156C25.4129 10.4189 24.0069 5.73984 21.1774 1.59125ZM8.34706 12.9526C7.11221 12.9526 6.09953 11.8208 6.09953 10.4425C6.09953 9.06425 7.09059 7.93049 8.34706 7.93049C9.60357 7.93049 10.6162 9.06227 10.5946 10.4425C10.5965 11.8208 9.60357 12.9526 8.34706 12.9526ZM16.6529 12.9526C15.418 12.9526 14.4053 11.8208 14.4053 10.4425C14.4053 9.06425 15.3963 7.93049 16.6529 7.93049C17.9093 7.93049 18.922 9.06227 18.9004 10.4425C18.9004 11.8208 17.9093 12.9526 16.6529 12.9526Z" fill="#7289DA"/>
</svg>
