<svg width="15" height="18" viewBox="0 0 15 18" fill="none"
  xmlns="http://www.w3.org/2000/svg">
  <path d="M1.58278 17.9702C1.93991 17.9702 2.23616 17.9012 2.47154 17.7633C2.70692 17.6253 2.9626 17.3615 3.23857 16.9719L7.20762 11.4201H7.28067L11.2497 16.9719C11.5256 17.3615 11.7773 17.6253 12.0045 17.7633C12.2318 17.9012 12.5159 17.9702 12.8568 17.9702C13.36 17.9702 13.7699 17.8241 14.0864 17.5319C14.403 17.2397 14.5613 16.8664 14.5613 16.4118C14.5613 16.006 14.4314 15.6245 14.1717 15.2674L9.44781 8.98508L14.196 2.65411C14.472 2.29698 14.61 1.9155 14.61 1.50967C14.61 1.07136 14.4517 0.710179 14.1352 0.426128C13.8186 0.142042 13.4331 0 12.9785 0C12.6376 0 12.3495 0.0689854 12.1141 0.206955C11.8787 0.344925 11.6393 0.59249 11.3958 0.949649L7.59719 6.52576H7.4998L3.57947 0.925263C3.33598 0.584361 3.09247 0.344925 2.84895 0.206955C2.60545 0.0689854 2.30514 0 1.94802 0C1.47726 0 1.07548 0.154211 0.742693 0.462631C0.409903 0.771052 0.243509 1.14442 0.243509 1.58273C0.243509 2.00479 0.397735 2.42686 0.706189 2.84895L5.1622 8.86335L0.365288 15.3648C0.121763 15.7219 0 16.0953 0 16.4849C0 16.9069 0.154228 17.26 0.462682 17.5441C0.771103 17.8282 1.14447 17.9702 1.58278 17.9702Z" fill="white"/>
</svg>
