<svg width="500" height="432" viewBox="0 0 500 432" fill="none" xmlns="http://www.w3.org/2000/svg">
<path d="M263.24 0C261.718 0 260.258 0.604748 259.181 1.68121C258.105 2.75767 257.5 4.21766 257.5 5.74V57.23C257.493 58.1692 257.718 59.0957 258.154 59.9276C258.59 60.7595 259.224 61.4713 260 62L284.7 78.69C285.562 79.2757 286.568 79.6152 287.609 79.6719C288.649 79.7285 289.686 79.5003 290.606 79.0117C291.527 78.5231 292.297 77.7926 292.833 76.899C293.37 76.0053 293.652 74.9823 293.65 73.94V41.94C293.649 41.1867 293.796 40.4405 294.083 39.7442C294.371 39.0478 294.793 38.415 295.325 37.8818C295.857 37.3487 296.489 36.9257 297.185 36.6371C297.881 36.3485 298.627 36.2 299.38 36.2H458.09C459.612 36.2 461.072 36.8047 462.149 37.8812C463.225 38.9577 463.83 40.4177 463.83 41.94V257.62C463.83 258.662 463.547 259.684 463.011 260.577C462.474 261.47 461.705 262.2 460.785 262.689C459.866 263.178 458.83 263.408 457.79 263.354C456.75 263.299 455.744 262.963 454.88 262.38L72.1501 3.75C68.5364 1.31293 64.2788 0.00742639 59.9201 0H20.7601C19.5324 0.000554253 18.3371 0.394755 17.35 1.12471C16.3628 1.85467 15.6357 2.88193 15.2754 4.05562C14.9151 5.22932 14.9407 6.48761 15.3483 7.64571C15.7559 8.80382 16.5241 9.80071 17.5401 10.49L491.05 330.47C491.912 331.056 492.918 331.395 493.958 331.452C494.999 331.509 496.036 331.28 496.956 330.792C497.877 330.303 498.647 329.573 499.183 328.679C499.72 327.785 500.002 326.762 500 325.72V5.74C500 4.21766 499.395 2.75767 498.319 1.68121C497.242 0.604748 495.782 0 494.26 0H263.24Z" fill="url(#paint0_linear_57_513)"/>
<path d="M36.1701 120.29L9.00011 101.89C8.13609 101.294 7.1251 100.946 6.07714 100.884C5.02918 100.823 3.98438 101.049 3.0564 101.54C2.12842 102.031 1.3528 102.767 0.813937 103.668C0.27507 104.569 -0.00641304 105.6 0.000110879 106.65V426.2C0.00276003 427.721 0.608678 429.178 1.68485 430.252C2.76102 431.327 4.2195 431.93 5.74011 431.93H236.44C237.96 431.93 239.417 431.326 240.492 430.252C241.566 429.177 242.17 427.72 242.17 426.2V374.54C242.171 373.601 241.942 372.676 241.503 371.846C241.064 371.016 240.427 370.307 239.65 369.78L215 353.09C214.137 352.507 213.131 352.171 212.09 352.116C211.05 352.062 210.015 352.292 209.095 352.781C208.175 353.27 207.406 354 206.869 354.893C206.333 355.786 206.05 356.808 206.05 357.85V390C206.05 391.52 205.446 392.977 204.372 394.052C203.297 395.126 201.84 395.73 200.32 395.73H41.9101C40.3895 395.73 38.931 395.127 37.8549 394.052C36.7787 392.978 36.1728 391.521 36.1701 390V174.74C36.1735 173.7 36.4593 172.68 36.9971 171.79C37.535 170.9 38.3045 170.173 39.2236 169.686C40.1427 169.199 41.1768 168.971 42.2153 169.027C43.2539 169.082 44.2579 169.418 45.1201 170L427.21 428.18C430.83 430.627 435.101 431.933 439.47 431.93H478.6C479.827 431.927 481.021 431.532 482.006 430.801C482.992 430.07 483.717 429.043 484.076 427.87C484.435 426.696 484.409 425.439 484.001 424.282C483.593 423.125 482.825 422.129 481.81 421.44L36.1701 120.29Z" fill="url(#paint1_linear_57_513)"/>
<defs>
<linearGradient id="paint0_linear_57_513" x1="242.164" y1="100.874" x2="242.164" y2="431.93" gradientUnits="userSpaceOnUse">
<stop stop-color="#0A84FF"/>
<stop offset="1" stop-color="#01B0EF"/>
</linearGradient>
<linearGradient id="paint1_linear_57_513" x1="242.164" y1="100.874" x2="242.164" y2="431.93" gradientUnits="userSpaceOnUse">
<stop stop-color="#0A84FF"/>
<stop offset="1" stop-color="#01B0EF"/>
</linearGradient>
</defs>
</svg>
