<svg width="36" height="30" viewBox="0 0 36 30" fill="none" xmlns="http://www.w3.org/2000/svg">
<path d="M23.6588 29.8056C24.4548 29.8056 25.1807 29.6103 25.8367 29.2197C26.4927 28.829 27.016 28.3058 27.4066 27.6498C27.7972 26.9938 27.9925 26.2679 27.9925 25.4719C27.9925 24.6759 27.7972 23.9536 27.4066 23.305C27.016 22.6564 26.4927 22.1368 25.8367 21.7461C25.1807 21.3555 24.4548 21.1602 23.6588 21.1602C22.8628 21.1602 22.1368 21.3555 21.4808 21.7461C20.8249 22.1368 20.3016 22.6564 19.911 23.305C19.5203 23.9536 19.325 24.6759 19.325 25.4719C19.325 26.2679 19.5203 26.9938 19.911 27.6498C20.3016 28.3058 20.8249 28.829 21.4808 29.2197C22.1368 29.6103 22.8628 29.8056 23.6588 29.8056ZM23.6588 27.4397C23.1134 27.4397 22.649 27.2481 22.2658 26.8649C21.8825 26.4816 21.6909 26.0173 21.6909 25.4719C21.6909 24.9117 21.8825 24.4437 22.2658 24.0678C22.649 23.6919 23.1134 23.504 23.6588 23.504C24.2189 23.504 24.6869 23.6919 25.0628 24.0678C25.4387 24.4437 25.6266 24.9117 25.6266 25.4719C25.6266 26.0173 25.4387 26.4816 25.0628 26.8649C24.6869 27.2481 24.2189 27.4397 23.6588 27.4397ZM20.9391 23.8798H1.59197C1.14977 23.8798 0.773883 24.0346 0.464326 24.3442C0.154775 24.6537 0 25.0296 0 25.4719C0 25.9288 0.154775 26.3084 0.464326 26.6106C0.773883 26.9128 1.14977 27.0638 1.59197 27.0638H20.9391V23.8798ZM33.7414 23.8798H26.7101V27.0638H33.7414C34.1541 27.0638 34.5116 26.9128 34.8138 26.6106C35.116 26.3084 35.2671 25.9288 35.2671 25.4719C35.2671 25.0296 35.116 24.6537 34.8138 24.3442C34.5116 24.0346 34.1541 23.8798 33.7414 23.8798ZM11.6525 19.2365C12.4485 19.2365 13.1745 19.0412 13.8304 18.6506C14.4864 18.26 15.0097 17.7367 15.4003 17.0807C15.791 16.4248 15.9863 15.6988 15.9863 14.9028C15.9863 14.1068 15.791 13.3845 15.4003 12.7359C15.0097 12.0873 14.4864 11.5677 13.8304 11.1771C13.1745 10.7865 12.4485 10.5911 11.6525 10.5911C10.8565 10.5911 10.1305 10.7865 9.47458 11.1771C8.8186 11.5677 8.29531 12.0873 7.9047 12.7359C7.51405 13.3845 7.31873 14.1068 7.31873 14.9028C7.31873 15.6988 7.51405 16.4248 7.9047 17.0807C8.29531 17.7367 8.8186 18.26 9.47458 18.6506C10.1305 19.0412 10.8565 19.2365 11.6525 19.2365ZM11.6525 16.8707C11.1071 16.8707 10.6428 16.679 10.2595 16.2958C9.87624 15.9125 9.6846 15.4482 9.6846 14.9028C9.6846 14.3427 9.87624 13.8746 10.2595 13.4987C10.6428 13.1229 11.1071 12.9349 11.6525 12.9349C12.2126 12.9349 12.6807 13.1229 13.0565 13.4987C13.4324 13.8746 13.6204 14.3427 13.6204 14.9028C13.6204 15.4482 13.4324 15.9125 13.0565 16.2958C12.6807 16.679 12.2126 16.8707 11.6525 16.8707ZM1.50353 13.3108C1.10555 13.3108 0.755468 13.4656 0.453277 13.7751C0.151092 14.0847 0 14.4606 0 14.9028C0 15.345 0.151092 15.7209 0.453277 16.0305C0.755468 16.34 1.10555 16.4948 1.50353 16.4948H8.6233V13.3108H1.50353ZM33.6751 13.3108H14.3942V16.4948H33.6751C34.1173 16.4948 34.4932 16.34 34.8027 16.0305C35.1123 15.7209 35.2671 15.345 35.2671 14.9028C35.2671 14.4606 35.1123 14.0847 34.8027 13.7751C34.4932 13.4656 34.1173 13.3108 33.6751 13.3108ZM23.6588 8.6675C24.4548 8.6675 25.1807 8.47218 25.8367 8.08153C26.4927 7.69092 27.016 7.16762 27.4066 6.51165C27.7972 5.85571 27.9925 5.12974 27.9925 4.33375C27.9925 3.53776 27.7972 2.81178 27.4066 2.1558C27.016 1.49986 26.4927 0.976565 25.8367 0.585921C25.1807 0.195307 24.4548 0 23.6588 0C22.8628 0 22.1368 0.195307 21.4808 0.585921C20.8249 0.976565 20.3016 1.49986 19.911 2.1558C19.5203 2.81178 19.325 3.53776 19.325 4.33375C19.325 5.12974 19.5203 5.85571 19.911 6.51165C20.3016 7.16762 20.8249 7.69092 21.4808 8.08153C22.1368 8.47218 22.8628 8.6675 23.6588 8.6675ZM23.6588 6.30163C23.1134 6.30163 22.649 6.10999 22.2658 5.72671C21.8825 5.34346 21.6909 4.87914 21.6909 4.33375C21.6909 3.77359 21.8825 3.30558 22.2658 2.92969C22.649 2.55381 23.1134 2.36587 23.6588 2.36587C24.2189 2.36587 24.6869 2.55381 25.0628 2.92969C25.4387 3.30558 25.6266 3.77359 25.6266 4.33375C25.6266 4.87914 25.4387 5.34346 25.0628 5.72671C24.6869 6.10999 24.2189 6.30163 23.6588 6.30163ZM21.0718 2.74177H1.59197C1.14977 2.74177 0.773883 2.89653 0.464326 3.20606C0.154775 3.51562 0 3.89151 0 4.33375C0 4.77596 0.154775 5.15184 0.464326 5.4614C0.773883 5.77095 1.14977 5.92573 1.59197 5.92573H21.0718V2.74177ZM33.7414 2.74177H26.4005V5.92573H33.7414C34.1541 5.92573 34.5116 5.77095 34.8138 5.4614C35.116 5.15184 35.2671 4.77596 35.2671 4.33375C35.2671 3.89151 35.116 3.51562 34.8138 3.20606C34.5116 2.89653 34.1541 2.74177 33.7414 2.74177Z" fill="white"/>
</svg>
