<svg width="37" height="48" viewBox="0 0 37 48" fill="none"
  xmlns="http://www.w3.org/2000/svg">
  <g clip-path="url(#clip0_4_112)">
    <path d="M26.7435 10.9832C25.5977 10.9832 24.5321 11.1594 23.5467 11.5117C22.5612 11.864 21.6637 12.2125 20.8539 12.5572C20.0442 12.9019 19.3414 13.0742 18.7456 13.0742C18.1192 13.0742 17.4241 12.9095 16.6602 12.5802C15.8964 12.2508 15.0752 11.9253 14.1967 11.6036C13.3182 11.2819 12.3825 11.1211 11.3895 11.1211C9.51031 11.1211 7.69991 11.6343 5.95826 12.6606C4.21662 13.6869 2.78816 15.2034 1.6729 17.2101C0.557633 19.2168 0 21.6908 0 24.632C0 26.4701 0.213887 28.3082 0.641661 30.1465C1.06943 31.9847 1.64234 33.7233 2.36039 35.3624C3.07843 37.0014 3.87286 38.449 4.74369 39.7051C5.87424 41.283 6.97805 42.6386 8.05513 43.7721C9.13219 44.9057 10.3811 45.4725 11.802 45.4725C12.7339 45.4725 13.5436 45.3193 14.2311 45.013C14.9186 44.7065 15.6481 44.3963 16.4196 44.0824C17.1911 43.7684 18.1574 43.6114 19.3185 43.6114C20.2046 43.6114 20.9456 43.7032 21.5414 43.8869C22.1373 44.0707 22.6834 44.2814 23.18 44.5189C23.6765 44.7564 24.1997 44.967 24.7498 45.1509C25.2997 45.3346 25.9642 45.4264 26.7435 45.4264C27.7671 45.4264 28.6875 45.1546 29.5048 44.6109C30.3222 44.0671 31.0784 43.3662 31.7735 42.5083C32.4687 41.6505 33.1448 40.7543 33.8017 39.8199C34.5198 38.763 35.1042 37.7482 35.5549 36.7755C36.0056 35.8028 36.3379 35.0063 36.5517 34.3859C36.7656 33.7655 36.8802 33.4247 36.8955 33.3633C36.8497 33.348 36.5174 33.1757 35.8987 32.8464C35.2798 32.517 34.577 31.9923 33.7902 31.2723C33.0035 30.5523 32.316 29.6102 31.7278 28.446C31.1395 27.282 30.8454 25.8574 30.8454 24.1722C30.8454 22.7017 31.0784 21.4342 31.5445 20.3696C32.0104 19.3049 32.5565 18.4241 33.1829 17.7271C33.8093 17.0301 34.3708 16.4978 34.8673 16.1302C35.3639 15.7626 35.6503 15.5558 35.7267 15.5098C34.9628 14.4069 34.1302 13.5491 33.2289 12.9363C32.3275 12.3236 31.4413 11.8794 30.5704 11.6036C29.6996 11.3279 28.9243 11.1556 28.2444 11.0866C27.5647 11.0177 27.0644 10.9832 26.7435 10.9832ZM25.1393 7.26089C25.8421 6.41838 26.415 5.44184 26.858 4.33126C27.3011 3.22067 27.5226 2.07563 27.5226 0.896121C27.5226 0.559119 27.4997 0.260412 27.4538 0C26.308 0.045955 25.1126 0.390617 23.8674 1.03399C22.6223 1.67736 21.5949 2.48157 20.7852 3.44661C20.1282 4.18189 19.5477 5.101 19.0435 6.20393C18.5394 7.30684 18.2873 8.44039 18.2873 9.60459C18.2873 9.78841 18.2988 9.95692 18.3217 10.1101C18.3446 10.2633 18.3637 10.3705 18.379 10.4318C18.5776 10.4777 18.7838 10.5007 18.9977 10.5007C20.0213 10.5007 21.1098 10.1943 22.2633 9.58162C23.4167 8.96888 24.3754 8.19531 25.1393 7.26089Z" fill="white" fill-opacity="0.85"/>
  </g>
  <defs>
    <clipPath id="clip0_4_112">
      <rect width="36.8955" height="48" fill="white"/>
    </clipPath>
  </defs>
</svg>
