<svg width="23" height="23" viewBox="0 0 23 23" fill="none"
  xmlns="http://www.w3.org/2000/svg">
  <path fill-rule="evenodd" clip-rule="evenodd" d="M11.5 23C5.14872 23 0 17.8513 0 11.5C0 5.14872 5.14872 0 11.5 0C17.8513 0 23 5.14872 23 11.5C23 17.8513 17.8513 23 11.5 23ZM15.0902 10.1345L13.6397 10.1402L13.6307 8.7948L15.0902 8.80415V7.37527L13.6211 7.34563L13.6104 5.74928H12.1714L12.18 7.32599H10.7989L10.8219 5.74928H9.3685L9.37906 7.32851L7.9381 7.37527V8.85338L9.35404 8.85693L9.38872 10.1807L7.9381 10.1837V11.6619L9.40794 11.6585L9.41783 13.1401H10.8392L10.8482 11.6126H12.18L12.2035 13.1401H13.6598L13.6495 11.6069L15.0902 11.6126V10.1345ZM16.6192 13.9284C13.3323 17.9216 8.44248 16.7582 6.3104 13.8298C5.62916 12.8942 3.88462 13.4018 4.97865 15.0124C8.11725 19.633 15.2512 19.2275 18.0496 15.0124C19.0167 13.5556 17.5972 12.7402 16.6192 13.9284ZM10.8392 8.86062L12.1515 8.86389L12.1602 10.1749L10.8738 10.1776L10.8392 8.86062Z" fill="#01B0EF"/>
</svg>
