<svg width="28" height="28" viewBox="0 0 28 28" fill="none"
  xmlns="http://www.w3.org/2000/svg">
  <path d="M0 9.6C0 6.23969 0 4.55953 0.653961 3.27606C1.2292 2.14708 2.14708 1.2292 3.27606 0.653961C4.55953 0 6.23969 0 9.6 0H18.4C21.7603 0 23.4405 0 24.7239 0.653961C25.8529 1.2292 26.7708 2.14708 27.346 3.27606C28 4.55953 28 6.23969 28 9.6V18.4C28 21.7603 28 23.4405 27.346 24.7239C26.7708 25.8529 25.8529 26.7708 24.7239 27.346C23.4405 28 21.7603 28 18.4 28H9.6C6.23969 28 4.55953 28 3.27606 27.346C2.14708 26.7708 1.2292 25.8529 0.653961 24.7239C0 23.4405 0 21.7603 0 18.4V9.6Z" fill="url(#paint0_linear_47_509)"/>
  <path d="M14 21C18.9706 21 23 17.6421 23 13.5C23 9.35783 18.9706 5.99997 14 5.99997C9.02944 5.99997 5 9.35783 5 13.5C5 16.1255 6.61889 18.4359 9.0702 19.7758C8.98814 20.4427 8.74147 21.3326 8 22C9.40212 21.7476 10.5211 21.2404 11.3571 20.6714C12.1928 20.885 13.0803 21 14 21Z" fill="white"/>
  <defs>
    <linearGradient id="paint0_linear_47_509" x1="14" y1="0" x2="14" y2="28" gradientUnits="userSpaceOnUse">
      <stop stop-color="#5AF575"/>
      <stop offset="1" stop-color="#13BD2C"/>
    </linearGradient>
  </defs>
</svg>
