<svg width="35" height="35" viewBox="0 0 35 35" fill="none"
  xmlns="http://www.w3.org/2000/svg">
  <path d="M0 14.2784C0 16.2391 0.370438 18.0837 1.11131 19.8124C1.85214 21.5411 2.87737 23.0602 4.18698 24.3698C5.49659 25.6794 7.01199 26.7009 8.73316 27.4343C10.4543 28.1676 12.3028 28.5343 14.2784 28.5343C15.7901 28.5343 17.2344 28.3098 18.6113 27.8608C19.9883 27.4118 21.253 26.7832 22.4054 25.975L30.7569 34.3489C30.9964 34.5734 31.2583 34.7381 31.5427 34.8428C31.827 34.9476 32.1189 35 32.4182 35C33.0768 35 33.6156 34.783 34.0346 34.3489C34.4537 33.9149 34.6633 33.3686 34.6633 32.7101C34.6633 32.3958 34.6071 32.1002 34.4949 31.8233C34.3826 31.5464 34.2292 31.3032 34.0346 31.0936L25.728 22.7646C26.6111 21.5822 27.2996 20.2689 27.7935 18.8246C28.2874 17.3803 28.5343 15.8649 28.5343 14.2784C28.5343 12.3028 28.1639 10.4544 27.423 8.73314C26.6822 7.01197 25.6607 5.49657 24.3586 4.18696C23.0564 2.87738 21.5411 1.85216 19.8124 1.11129C18.0837 0.370431 16.239 0 14.2784 0C12.3028 0 10.4543 0.370431 8.73316 1.11129C7.01199 1.85216 5.49659 2.87738 4.18698 4.18696C2.87737 5.49657 1.85214 7.01197 1.11131 8.73314C0.370438 10.4544 0 12.3028 0 14.2784ZM3.45735 14.2784C3.45735 12.7817 3.73423 11.3786 4.28799 10.0689C4.84178 8.75934 5.61632 7.61063 6.61159 6.62284C7.6069 5.63501 8.75936 4.86048 10.069 4.29924C11.3786 3.73797 12.7817 3.45733 14.2784 3.45733C15.7751 3.45733 17.1745 3.73797 18.4766 4.29924C19.7787 4.86048 20.9274 5.63501 21.9227 6.62284C22.918 7.61063 23.6963 8.75934 24.2576 10.0689C24.8188 11.3786 25.0994 12.7817 25.0994 14.2784C25.0994 15.7751 24.8188 17.1745 24.2576 18.4766C23.6963 19.7787 22.918 20.9274 21.9227 21.9227C20.9274 22.918 19.7787 23.6963 18.4766 24.2575C17.1745 24.8188 15.7751 25.0994 14.2784 25.0994C12.7817 25.0994 11.3786 24.8188 10.069 24.2575C8.75936 23.6963 7.6069 22.918 6.61159 21.9227C5.61632 20.9274 4.84178 19.7787 4.28799 18.4766C3.73423 17.1745 3.45735 15.7751 3.45735 14.2784Z" fill="white"/>
</svg>
